# xmcd
#
# Track frame offsets:
#	150
#	32782
#	62246
#	100416
#	136595
#	181644
#	206732
#	247969
#	274665
#	303608
#
# Disc length: 4385 seconds
#
# Revision: 7274606
# Processed by: cddbd v1.5.2PL0 Copyright (c) Steve Scherf et al.
# Submitted via: EZCDAudioConverter 8.5.0.1
#
DISCID=88111f0a
DTITLE=V/A - 80s Pop 1/3
DYEAR=2016
DGENRE=
TTITLE0=Spandau Ballet - Gold [12" Mix]
TTITLE1=Duran Duran - The Reflex [Dance Mix]
TTITLE2=Soft Cell - Torch [Extended Version]
TTITLE3=Tears For Fears - Shout [Extended Version]
TTITLE4=Ultravox - Dancing With Tears In My Eyes [12" Version]
TTITLE5=The Smiths - This Charming Man [New York Mix]
TTITLE6=Echo and The Bunnymen - The Killing Moon [All Night Version]
TTITLE7=The Specials - Ghost Town [Extended Version]
TTITLE8=Fun Boy Three - Summertime [Extended 12" Version]
TTITLE9=Bananarama - Robert De Niro's Waiting [Extended Version]
EXTD=
EXTT0=
EXTT1=
EXTT2=
EXTT3=
EXTT4=
EXTT5=
EXTT6=
EXTT7=
EXTT8=
EXTT9=
PLAYORDER=
